<?xml version="1.0" encoding="UTF-8" standalone="no"?>
<!-- Created with Inkscape (http://www.inkscape.org/) -->

<svg
   xmlns:ns0="http://www.iki.fi/pav/software/textext/"
   xmlns:dc="http://purl.org/dc/elements/1.1/"
   xmlns:cc="http://creativecommons.org/ns#"
   xmlns:rdf="http://www.w3.org/1999/02/22-rdf-syntax-ns#"
   xmlns:svg="http://www.w3.org/2000/svg"
   xmlns="http://www.w3.org/2000/svg"
   xmlns:sodipodi="http://sodipodi.sourceforge.net/DTD/sodipodi-0.dtd"
   xmlns:inkscape="http://www.inkscape.org/namespaces/inkscape"
   width="297mm"
   height="210mm"
   viewBox="0 0 1052.3622 744.09449"
   id="svg6735"
   version="1.1"
   inkscape:version="0.92.3 (2405546, 2018-03-11)"
   sodipodi:docname="Ejemplos.svg">
  <sodipodi:namedview
     id="base"
     pagecolor="#ffffff"
     bordercolor="#666666"
     borderopacity="1.0"
     inkscape:pageopacity="0.0"
     inkscape:pageshadow="2"
     inkscape:zoom="0.70710678"
     inkscape:cx="493.22724"
     inkscape:cy="311.24813"
     inkscape:document-units="px"
     inkscape:current-layer="layer1"
     showgrid="false"
     inkscape:window-width="1280"
     inkscape:window-height="961"
     inkscape:window-x="-8"
     inkscape:window-y="-7"
     inkscape:window-maximized="1" />
  <defs
     id="defs6737">
    <marker
       inkscape:stockid="Arrow1Lstart"
       orient="auto"
       refY="0"
       refX="0"
       id="marker6466"
       style="overflow:visible"
       inkscape:isstock="true">
      <path
         id="path6468"
         d="M 0,0 5,-5 -12.5,0 5,5 Z"
         style="fill:#000000;fill-opacity:1;fill-rule:evenodd;stroke:#000000;stroke-width:1.00000003pt;stroke-opacity:1"
         transform="matrix(0.8,0,0,0.8,10,0)"
         inkscape:connector-curvature="0" />
    </marker>
    <inkscape:path-effect
       effect="spiro"
       id="path-effect6460"
       is_visible="true" />
    <inkscape:path-effect
       effect="spiro"
       id="path-effect6456"
       is_visible="true" />
    <inkscape:path-effect
       effect="spiro"
       id="path-effect6452"
       is_visible="true" />
    <inkscape:path-effect
       effect="spiro"
       id="path-effect6448"
       is_visible="true" />
    <inkscape:path-effect
       effect="spiro"
       id="path-effect6444"
       is_visible="true" />
    <marker
       inkscape:isstock="true"
       style="overflow:visible"
       id="marker5850"
       refX="0"
       refY="0"
       orient="auto"
       inkscape:stockid="Arrow1Lend">
      <path
         transform="matrix(-0.8,0,0,-0.8,-10,0)"
         style="fill:#000000;fill-opacity:1;fill-rule:evenodd;stroke:#000000;stroke-width:1.00000003pt;stroke-opacity:1"
         d="M 0,0 5,-5 -12.5,0 5,5 Z"
         id="path5591"
         inkscape:connector-curvature="0" />
    </marker>
    <marker
       inkscape:isstock="true"
       style="overflow:visible"
       id="marker5847"
       refX="0"
       refY="0"
       orient="auto"
       inkscape:stockid="Arrow1Lstart">
      <path
         transform="matrix(0.8,0,0,0.8,10,0)"
         style="fill:#000000;fill-opacity:1;fill-rule:evenodd;stroke:#000000;stroke-width:1.00000003pt;stroke-opacity:1"
         d="M 0,0 5,-5 -12.5,0 5,5 Z"
         id="path5588"
         inkscape:connector-curvature="0" />
    </marker>
    <inkscape:path-effect
       is_visible="true"
       id="path-effect5582"
       effect="spiro" />
    <inkscape:path-effect
       effect="spiro"
       id="path-effect9955"
       is_visible="true" />
    <inkscape:path-effect
       is_visible="true"
       id="path-effect9183"
       effect="spiro" />
    <inkscape:path-effect
       is_visible="true"
       id="path-effect9171"
       effect="spiro" />
    <inkscape:path-effect
       is_visible="true"
       id="path-effect9167"
       effect="spiro" />
    <marker
       inkscape:stockid="Arrow1Lstart"
       orient="auto"
       refY="0"
       refX="0"
       id="Arrow1Lstart"
       style="overflow:visible"
       inkscape:isstock="true">
      <path
         id="path4174"
         d="M 0,0 5,-5 -12.5,0 5,5 Z"
         style="fill:#000000;fill-opacity:1;fill-rule:evenodd;stroke:#000000;stroke-width:1.00000003pt;stroke-opacity:1"
         transform="matrix(0.8,0,0,0.8,10,0)"
         inkscape:connector-curvature="0" />
    </marker>
    <marker
       inkscape:stockid="Arrow1Lend"
       orient="auto"
       refY="0"
       refX="0"
       id="Arrow1Lend"
       style="overflow:visible"
       inkscape:isstock="true">
      <path
         id="path4177"
         d="M 0,0 5,-5 -12.5,0 5,5 Z"
         style="fill:#000000;fill-opacity:1;fill-rule:evenodd;stroke:#000000;stroke-width:1.00000003pt;stroke-opacity:1"
         transform="matrix(-0.8,0,0,-0.8,-10,0)"
         inkscape:connector-curvature="0" />
    </marker>
  </defs>
  <metadata
     id="metadata6740">
    <rdf:RDF>
      <cc:Work
         rdf:about="">
        <dc:format>image/svg+xml</dc:format>
        <dc:type
           rdf:resource="http://purl.org/dc/dcmitype/StillImage" />
        <dc:title></dc:title>
      </cc:Work>
    </rdf:RDF>
  </metadata>
  <g
     inkscape:groupmode="layer"
     id="layer2"
     inkscape:label="Capa 2"
     transform="translate(0,-308.26772)" />
  <g
     id="layer1"
     inkscape:groupmode="layer"
     inkscape:label="Capa 1"
     transform="translate(0,-308.26772)">
    <path
       style="fill:#ff7f2a;stroke-width:1.0610671;stroke-miterlimit:4;stroke-dasharray:none"
       d="m 550.29102,771.3694 229.61443,-0.44539 227.40835,0.44539 c 0.2689,37.64109 0,0 0.2689,37.64109 -35.00234,0 -229.8126,0.39544 -229.8126,0.39544 l -228.81228,1.01195 z"
       id="path4752"
       inkscape:connector-curvature="0"
       sodipodi:nodetypes="ccccccc" />
    <path
       inkscape:connector-curvature="0"
       id="path9963"
       d="m 656.30135,809.01475 c 0.003,-0.009 0.0115,-0.04 0.019,-0.0695 l 0.0138,-0.0537 h 0.21416 0.21414 v 0.0695 0.0695 h -0.23317 c -0.18095,0 -0.232,-0.003 -0.22789,-0.0157 z"
       style="opacity:1;fill:#80007f;fill-opacity:1;fill-rule:evenodd;stroke:none;stroke-width:2.48095131;stroke-miterlimit:4;stroke-dasharray:none;stroke-opacity:1" />
    <path
       inkscape:connector-curvature="0"
       id="path9993"
       d=""
       style="opacity:1;fill:#e6bfd9;fill-opacity:1;fill-rule:evenodd;stroke:none;stroke-width:3.0999999;stroke-miterlimit:4;stroke-dasharray:none;stroke-opacity:1" />
    <path
       inkscape:connector-curvature="0"
       id="path9999"
       d=""
       style="opacity:1;fill:#e6bfd9;fill-opacity:1;fill-rule:evenodd;stroke:none;stroke-width:3.0999999;stroke-miterlimit:4;stroke-dasharray:none;stroke-opacity:1" />
    <path
       inkscape:connector-curvature="0"
       id="path10003"
       d=""
       style="opacity:1;fill:#e6bfd9;fill-opacity:1;fill-rule:evenodd;stroke:none;stroke-width:3.0999999;stroke-miterlimit:4;stroke-dasharray:none;stroke-opacity:1" />
    <path
       inkscape:connector-curvature="0"
       id="path10011"
       d=""
       style="opacity:1;fill:#f2deec;fill-opacity:1;fill-rule:evenodd;stroke:none;stroke-width:3.0999999;stroke-miterlimit:4;stroke-dasharray:none;stroke-opacity:1" />
    <path
       inkscape:connector-curvature="0"
       id="path10013"
       d=""
       style="opacity:1;fill:#f2deec;fill-opacity:1;fill-rule:evenodd;stroke:none;stroke-width:3.0999999;stroke-miterlimit:4;stroke-dasharray:none;stroke-opacity:1" />
    <g
       transform="matrix(3.5479744,0,0,3.5479744,-667.12246,-261.5875)"
       ns0:text="$\\lambda &gt; 0$"
       ns0:preamble="/home/tomas.sanz/Dropbox/PhD/Inkscape/packages.ini"
       id="g11320">
      <defs
         id="defs11322">
        <g
           id="g11324">
          <symbol
             style="overflow:visible"
             overflow="visible"
             id="textext-cfc84660-0">
            <path
               inkscape:connector-curvature="0"
               style="stroke:none"
               d=""
               id="path11327" />
          </symbol>
          <symbol
             style="overflow:visible"
             overflow="visible"
             id="textext-cfc84660-1">
            <path
               inkscape:connector-curvature="0"
               style="stroke:none"
               d="m 3.5625,-2.90625 c 0.40625,1.046875 0.890625,2.5625 1.046875,2.796875 0.15625,0.21875 0.25,0.21875 0.53125,0.21875 h 0.21875 c 0.09375,-0.015625 0.109375,-0.0625 0.109375,-0.09375 0,-0.03125 -0.03125,-0.0625 -0.0625,-0.09375 C 5.3125,-0.1875 5.25,-0.34375 5.1875,-0.53125 L 3.15625,-6.203125 c -0.21875,-0.578125 -0.75,-0.71875 -1.21875,-0.71875 -0.046875,0 -0.1875,0 -0.1875,0.109375 0,0.078125 0.078125,0.109375 0.09375,0.109375 C 2.171875,-6.65625 2.25,-6.59375 2.5,-5.90625 l 0.953125,2.703125 -2.75,2.734375 c -0.109375,0.125 -0.171875,0.171875 -0.171875,0.3125 0,0.171875 0.140625,0.28125 0.296875,0.28125 0.15625,0 0.25,-0.109375 0.328125,-0.203125 z m 0,0"
               id="path11330" />
          </symbol>
          <symbol
             style="overflow:visible"
             overflow="visible"
             id="textext-cfc84660-2">
            <path
               inkscape:connector-curvature="0"
               style="stroke:none"
               d="M 6.734375,-2.265625 C 6.84375,-2.328125 6.921875,-2.375 6.921875,-2.5 c 0,-0.109375 -0.078125,-0.15625 -0.1875,-0.21875 L 1.203125,-5.3125 C 1.078125,-5.390625 1.0625,-5.390625 1.03125,-5.390625 c -0.109375,0 -0.203125,0.09375 -0.203125,0.203125 0,0.09375 0.046875,0.15625 0.1875,0.21875 L 6.25,-2.5 1.015625,-0.015625 c -0.140625,0.0625 -0.1875,0.125 -0.1875,0.21875 0,0.109375 0.09375,0.203125 0.203125,0.203125 0.03125,0 0.046875,0 0.171875,-0.078125 z m 0,0"
               id="path11333" />
          </symbol>
          <symbol
             style="overflow:visible"
             overflow="visible"
             id="textext-cfc84660-3">
            <path
               inkscape:connector-curvature="0"
               style="stroke:none"
               d=""
               id="path11336" />
          </symbol>
          <symbol
             style="overflow:visible"
             overflow="visible"
             id="textext-cfc84660-4">
            <path
               inkscape:connector-curvature="0"
               style="stroke:none"
               d="m 4.578125,-3.1875 c 0,-0.796875 -0.046875,-1.59375 -0.390625,-2.328125 -0.453125,-0.96875 -1.28125,-1.125 -1.6875,-1.125 -0.609375,0 -1.328125,0.265625 -1.75,1.1875 -0.3125,0.6875 -0.359375,1.46875 -0.359375,2.265625 0,0.75 0.03125,1.640625 0.453125,2.40625 0.421875,0.796875 1.15625,1 1.640625,1 0.53125,0 1.296875,-0.203125 1.734375,-1.15625 0.3125,-0.6875 0.359375,-1.46875 0.359375,-2.25 z M 2.484375,0 C 2.09375,0 1.5,-0.25 1.328125,-1.203125 1.21875,-1.796875 1.21875,-2.71875 1.21875,-3.3125 c 0,-0.640625 0,-1.296875 0.078125,-1.828125 0.1875,-1.1875 0.9375,-1.28125 1.1875,-1.28125 0.328125,0 0.984375,0.1875 1.171875,1.171875 0.109375,0.5625 0.109375,1.3125 0.109375,1.9375 0,0.75 0,1.421875 -0.109375,2.0625 C 3.5,-0.296875 2.9375,0 2.484375,0 Z m 0,0"
               id="path11339" />
          </symbol>
        </g>
      </defs>
    </g>
    <path
       inkscape:connector-curvature="0"
       id="path11579"
       d="m 662.2484,809.0596 c 0.0172,-0.002 0.0847,-0.005 0.14999,-0.005 0.21702,-8e-4 0.80159,-0.0181 1.20927,-0.0352 1.21505,-0.0508 2.17125,-0.14007 2.68638,-0.25062 0.0562,-0.0121 0.10296,-0.021 0.10384,-0.02 0.0303,0.0365 0.0657,0.12613 0.0657,0.16643 0,0.0508 -0.0202,0.0679 -0.0999,0.0848 -0.14497,0.0308 -0.44985,0.0437 -1.26551,0.0541 -0.58172,0.007 -2.89825,0.0116 -2.84974,0.005 z"
       style="fill:#a0a0a0;stroke:none;stroke-width:0.80030692px;stroke-linecap:butt;stroke-linejoin:miter;stroke-opacity:1" />
    <path
       inkscape:connector-curvature="0"
       id="path11581"
       d="m 666.25945,809.02832 c 0.0861,-0.005 0.10988,-0.008 0.13124,-0.0182 0.0143,-0.007 0.0411,-0.0186 0.0594,-0.0256 0.0183,-0.007 0.0427,-0.0209 0.0542,-0.0311 l 0.0209,-0.0183 0.0392,0.0456 0.0392,0.0456 -0.13091,0.004 c -0.072,0.002 -0.17308,0.004 -0.22464,0.004 l -0.0937,-5e-5 0.10515,-0.006 v 0 z"
       style="fill:#a0a0a0;stroke:none;stroke-width:0.80030692px;stroke-linecap:butt;stroke-linejoin:miter;stroke-opacity:1" />
    <path
       inkscape:connector-curvature="0"
       id="path11585"
       d="m 666.32632,807.53471 c 0.22322,-0.003 0.27765,-0.005 0.27916,-0.009 0.002,-0.004 0.013,0.005 0.013,0.01 0,0.002 -0.10582,0.002 -0.23514,0.002 l -0.23513,-5.1e-4 0.1781,-0.002 z"
       style="fill:#a0a0a0;stroke:none;stroke-width:0.80030692px;stroke-linecap:butt;stroke-linejoin:miter;stroke-opacity:1" />
    <path
       id="path416"
       d="m 1004.5579,809.54326 -6.91138,6.91794 24.18978,-6.91794 -24.18978,-6.91793 z"
       style="fill:#000000;fill-opacity:1;fill-rule:evenodd;stroke:#000000;stroke-width:1.38293043pt;stroke-opacity:1"
       inkscape:connector-curvature="0" />
    <path
       id="path416-2"
       d="m 777.50242,551.07128 6.91137,6.91793 -6.91137,-24.21275 -6.91136,24.21275 z"
       style="fill:#000000;fill-opacity:1;fill-rule:evenodd;stroke:#000000;stroke-width:1.38293043pt;stroke-opacity:1"
       inkscape:connector-curvature="0" />
    <path
       style="color:#000000;font-style:normal;font-variant:normal;font-weight:normal;font-stretch:normal;font-size:medium;line-height:normal;font-family:sans-serif;font-variant-ligatures:normal;font-variant-position:normal;font-variant-caps:normal;font-variant-numeric:normal;font-variant-alternates:normal;font-feature-settings:normal;text-indent:0;text-align:start;text-decoration:none;text-decoration-line:none;text-decoration-style:solid;text-decoration-color:#000000;letter-spacing:normal;word-spacing:normal;text-transform:none;writing-mode:lr-tb;direction:ltr;text-orientation:mixed;dominant-baseline:auto;baseline-shift:baseline;text-anchor:start;white-space:normal;shape-padding:0;clip-rule:nonzero;display:inline;overflow:visible;visibility:visible;opacity:1;isolation:auto;mix-blend-mode:normal;color-interpolation:sRGB;color-interpolation-filters:linearRGB;solid-color:#000000;solid-opacity:1;vector-effect:none;fill:#000000;fill-opacity:1;fill-rule:evenodd;stroke:none;stroke-width:3.00527048;stroke-linecap:butt;stroke-linejoin:miter;stroke-miterlimit:4;stroke-dasharray:none;stroke-dashoffset:0;stroke-opacity:1;color-rendering:auto;image-rendering:auto;shape-rendering:auto;text-rendering:auto;enable-background:accumulate"
       d="m 776.50139,809.59415 h 1.89983 V 546.07336 h -1.89983 z"
       id="path11720-4"
       inkscape:connector-curvature="0" />
    <path
       style="color:#000000;font-style:normal;font-variant:normal;font-weight:normal;font-stretch:normal;font-size:medium;line-height:normal;font-family:sans-serif;font-variant-ligatures:normal;font-variant-position:normal;font-variant-caps:normal;font-variant-numeric:normal;font-variant-alternates:normal;font-feature-settings:normal;text-indent:0;text-align:start;text-decoration:none;text-decoration-line:none;text-decoration-style:solid;text-decoration-color:#000000;letter-spacing:normal;word-spacing:normal;text-transform:none;writing-mode:lr-tb;direction:ltr;text-orientation:mixed;dominant-baseline:auto;baseline-shift:baseline;text-anchor:start;white-space:normal;shape-padding:0;clip-rule:nonzero;display:inline;overflow:visible;visibility:visible;opacity:1;isolation:auto;mix-blend-mode:normal;color-interpolation:sRGB;color-interpolation-filters:linearRGB;solid-color:#000000;solid-opacity:1;vector-effect:none;fill:#000000;fill-opacity:1;fill-rule:evenodd;stroke:none;stroke-width:3.95959711;stroke-linecap:butt;stroke-linejoin:miter;stroke-miterlimit:4;stroke-dasharray:none;stroke-dashoffset:0;stroke-opacity:1;color-rendering:auto;image-rendering:auto;shape-rendering:auto;text-rendering:auto;enable-background:accumulate"
       d="m 550.29102,769.46777 v 1.90163 h 457.02278 v -1.90163 z"
       id="path11720-0"
       inkscape:connector-curvature="0" />
    <path
       style="fill:#ff7f2a;stroke-width:0.53053355"
       d="M 118.24294,764.33009 21.17892,715.53686 C 94.59666,615.35361 195.92055,579.79259 247.16056,579.79259 c 51.24,0 151.39385,39.61152 225.52784,137.252 L 285.9016,809.4614 c -52.54311,0.0336 -17.77125,-1.46848 -77.96596,-1.46848 z"
       id="path3864"
       inkscape:connector-curvature="0"
       sodipodi:nodetypes="cczcccc" />
    <path
       inkscape:connector-curvature="0"
       id="path9963-1"
       d="m 125.86113,808.47276 c 0.003,-0.009 0.0115,-0.04 0.019,-0.0695 l 0.0138,-0.0537 h 0.21414 0.21415 v 0.0695 0.0695 h -0.23317 c -0.18095,0 -0.23201,-0.003 -0.2279,-0.0158 z"
       style="opacity:1;fill:#80007f;fill-opacity:1;fill-rule:evenodd;stroke:none;stroke-width:2.48095131;stroke-miterlimit:4;stroke-dasharray:none;stroke-opacity:1" />
    <path
       inkscape:connector-curvature="0"
       id="path11579-5"
       d="m 131.80819,808.5176 c 0.0172,-0.002 0.0846,-0.005 0.14998,-0.005 0.21702,-7.5e-4 0.80159,-0.0181 1.20927,-0.0352 1.21506,-0.0508 2.17125,-0.14007 2.68638,-0.25062 0.0562,-0.0121 0.10296,-0.021 0.10385,-0.02 0.0303,0.0365 0.0657,0.12613 0.0657,0.16643 0,0.0508 -0.0202,0.0679 -0.0999,0.0848 -0.14497,0.0308 -0.44985,0.0437 -1.26551,0.0541 -0.58171,0.007 -2.89825,0.0116 -2.84974,0.005 z"
       style="fill:#a0a0a0;stroke:none;stroke-width:0.80030692px;stroke-linecap:butt;stroke-linejoin:miter;stroke-opacity:1" />
    <path
       inkscape:connector-curvature="0"
       id="path11581-4"
       d="m 135.81923,808.48632 c 0.0861,-0.005 0.10988,-0.008 0.13124,-0.0182 0.0143,-0.007 0.0411,-0.0186 0.0594,-0.0256 0.0183,-0.007 0.0427,-0.0209 0.0542,-0.0311 l 0.0209,-0.0183 0.0392,0.0456 0.0392,0.0456 -0.13091,0.004 c -0.072,0.002 -0.17308,0.004 -0.22464,0.004 l -0.0937,-5e-5 0.10515,-0.006 v 0 z"
       style="fill:#a0a0a0;stroke:none;stroke-width:0.80030692px;stroke-linecap:butt;stroke-linejoin:miter;stroke-opacity:1" />
    <path
       inkscape:connector-curvature="0"
       id="path11585-0"
       d="m 135.8861,806.99272 c 0.22322,-0.003 0.27765,-0.005 0.27916,-0.009 0.002,-0.004 0.013,0.005 0.013,0.01 0,0.002 -0.10582,0.002 -0.23514,0.002 l -0.23513,-5.2e-4 0.17811,-0.002 z"
       style="fill:#a0a0a0;stroke:none;stroke-width:0.80030692px;stroke-linecap:butt;stroke-linejoin:miter;stroke-opacity:1" />
    <path
       id="path416-3"
       d="m 474.1177,809.00128 -6.9113,6.91793 24.1898,-6.91793 -24.1898,-6.91793 z"
       style="fill:#000000;fill-opacity:1;fill-rule:evenodd;stroke:#000000;stroke-width:1.38293043pt;stroke-opacity:1"
       inkscape:connector-curvature="0" />
    <path
       style="color:#000000;font-style:normal;font-variant:normal;font-weight:normal;font-stretch:normal;font-size:medium;line-height:normal;font-family:sans-serif;font-variant-ligatures:normal;font-variant-position:normal;font-variant-caps:normal;font-variant-numeric:normal;font-variant-alternates:normal;font-feature-settings:normal;text-indent:0;text-align:start;text-decoration:none;text-decoration-line:none;text-decoration-style:solid;text-decoration-color:#000000;letter-spacing:normal;word-spacing:normal;text-transform:none;writing-mode:lr-tb;direction:ltr;text-orientation:mixed;dominant-baseline:auto;baseline-shift:baseline;text-anchor:start;white-space:normal;shape-padding:0;clip-rule:nonzero;display:inline;overflow:visible;visibility:visible;opacity:1;isolation:auto;mix-blend-mode:normal;color-interpolation:sRGB;color-interpolation-filters:linearRGB;solid-color:#000000;solid-opacity:1;vector-effect:none;fill:#000000;fill-opacity:1;fill-rule:evenodd;stroke:none;stroke-width:3.95959711;stroke-linecap:butt;stroke-linejoin:miter;stroke-miterlimit:4;stroke-dasharray:none;stroke-dashoffset:0;stroke-opacity:1;color-rendering:auto;image-rendering:auto;shape-rendering:auto;text-rendering:auto;enable-background:accumulate"
       d="m 18.5176,807.97425 v 1.90164 h 457.0228 v -1.90164 z"
       id="path11720-3"
       inkscape:connector-curvature="0" />
    <path
       style="color:#000000;font-style:normal;font-variant:normal;font-weight:normal;font-stretch:normal;font-size:medium;line-height:normal;font-family:sans-serif;font-variant-ligatures:normal;font-variant-position:normal;font-variant-caps:normal;font-variant-numeric:normal;font-variant-alternates:normal;font-feature-settings:normal;text-indent:0;text-align:start;text-decoration:none;text-decoration-line:none;text-decoration-style:solid;text-decoration-color:#000000;letter-spacing:normal;word-spacing:normal;text-transform:none;writing-mode:lr-tb;direction:ltr;text-orientation:mixed;dominant-baseline:auto;baseline-shift:baseline;text-anchor:start;white-space:normal;shape-padding:0;clip-rule:nonzero;display:inline;overflow:visible;visibility:visible;opacity:1;isolation:auto;mix-blend-mode:normal;color-interpolation:sRGB;color-interpolation-filters:linearRGB;solid-color:#000000;solid-opacity:1;vector-effect:none;fill:#000000;fill-opacity:1;fill-rule:evenodd;stroke:none;stroke-width:2.23244667px;stroke-linecap:butt;stroke-linejoin:miter;stroke-miterlimit:4;stroke-dasharray:none;stroke-dashoffset:0;stroke-opacity:1;color-rendering:auto;image-rendering:auto;shape-rendering:auto;text-rendering:auto;enable-background:accumulate"
       d="m 207.5049,806.58623 v 4.93935 h 78.75 v -4.93935 z"
       id="path6416"
       inkscape:connector-curvature="0" />
    <path
       style="fill:none;fill-rule:evenodd;stroke:#000000;stroke-width:1.86504507px;stroke-linecap:butt;stroke-linejoin:miter;stroke-opacity:1"
       d="m 207.3807,799.10316 v 19.5843"
       id="path6418"
       inkscape:connector-curvature="0" />
    <path
       style="fill:none;fill-rule:evenodd;stroke:#000000;stroke-width:1.98377264px;stroke-linecap:butt;stroke-linejoin:miter;stroke-opacity:1"
       d="m 286.10817,799.10316 v 19.5843"
       id="path6440"
       inkscape:connector-curvature="0" />
    <path
       id="path416-2-1"
       d="m 247.06222,550.52927 6.91136,6.91793 -6.91136,-24.21275 -6.91138,24.21275 z"
       style="fill:#000000;fill-opacity:1;fill-rule:evenodd;stroke:#000000;stroke-width:1.38293043pt;stroke-opacity:1"
       inkscape:connector-curvature="0" />
    <path
       style="color:#000000;font-style:normal;font-variant:normal;font-weight:normal;font-stretch:normal;font-size:medium;line-height:normal;font-family:sans-serif;font-variant-ligatures:normal;font-variant-position:normal;font-variant-caps:normal;font-variant-numeric:normal;font-variant-alternates:normal;font-feature-settings:normal;text-indent:0;text-align:start;text-decoration:none;text-decoration-line:none;text-decoration-style:solid;text-decoration-color:#000000;letter-spacing:normal;word-spacing:normal;text-transform:none;writing-mode:lr-tb;direction:ltr;text-orientation:mixed;dominant-baseline:auto;baseline-shift:baseline;text-anchor:start;white-space:normal;shape-padding:0;clip-rule:nonzero;display:inline;overflow:visible;visibility:visible;opacity:1;isolation:auto;mix-blend-mode:normal;color-interpolation:sRGB;color-interpolation-filters:linearRGB;solid-color:#000000;solid-opacity:1;vector-effect:none;fill:#000000;fill-opacity:1;fill-rule:evenodd;stroke:none;stroke-width:3.00527048;stroke-linecap:butt;stroke-linejoin:miter;stroke-miterlimit:4;stroke-dasharray:none;stroke-dashoffset:0;stroke-opacity:1;color-rendering:auto;image-rendering:auto;shape-rendering:auto;text-rendering:auto;enable-background:accumulate"
       d="m 246.06117,807.55086 h 1.89983 v -263.5208 h -1.89983 z"
       id="path11720-4-5"
       inkscape:connector-curvature="0" />
    <path
       style="fill:none;stroke:#000000;stroke-width:1.51922452;stroke-linecap:butt;stroke-linejoin:miter;stroke-miterlimit:4;stroke-dasharray:none;stroke-opacity:1"
       d="M 285.9016,809.4614 472.6884,717.04459"
       id="path3839"
       inkscape:connector-curvature="0" />
    <path
       style="fill:none;stroke:#000000;stroke-width:1.51942492;stroke-linecap:butt;stroke-linejoin:miter;stroke-miterlimit:4;stroke-dasharray:none;stroke-opacity:1"
       d="M 207.379,808.52026 20.62228,716.0642"
       id="path3839-8"
       inkscape:connector-curvature="0" />
    <path
       style="color:#000000;font-style:normal;font-variant:normal;font-weight:normal;font-stretch:normal;font-size:medium;line-height:normal;font-family:sans-serif;font-variant-ligatures:normal;font-variant-position:normal;font-variant-caps:normal;font-variant-numeric:normal;font-variant-alternates:normal;font-feature-settings:normal;text-indent:0;text-align:start;text-decoration:none;text-decoration-line:none;text-decoration-style:solid;text-decoration-color:#000000;letter-spacing:normal;word-spacing:normal;text-transform:none;writing-mode:lr-tb;direction:ltr;text-orientation:mixed;dominant-baseline:auto;baseline-shift:baseline;text-anchor:start;white-space:normal;shape-padding:0;clip-rule:nonzero;display:inline;overflow:visible;visibility:visible;opacity:1;isolation:auto;mix-blend-mode:normal;color-interpolation:sRGB;color-interpolation-filters:linearRGB;solid-color:#000000;solid-opacity:1;vector-effect:none;fill:#000000;fill-opacity:1;fill-rule:evenodd;stroke:none;stroke-width:5.37886667px;stroke-linecap:butt;stroke-linejoin:miter;stroke-miterlimit:4;stroke-dasharray:none;stroke-dashoffset:0;stroke-opacity:1;color-rendering:auto;image-rendering:auto;shape-rendering:auto;text-rendering:auto;enable-background:accumulate"
       d="m 548.95782,806.64125 v 4.93935 h 457.16168 v -4.93935 z"
       id="path6416-2"
       inkscape:connector-curvature="0" />
    <path
       style="color:#000000;font-style:normal;font-variant:normal;font-weight:normal;font-stretch:normal;font-size:medium;line-height:normal;font-family:sans-serif;font-variant-ligatures:normal;font-variant-position:normal;font-variant-caps:normal;font-variant-numeric:normal;font-variant-alternates:normal;font-feature-settings:normal;text-indent:0;text-align:start;text-decoration:none;text-decoration-line:none;text-decoration-style:solid;text-decoration-color:#000000;letter-spacing:normal;word-spacing:normal;text-transform:none;writing-mode:lr-tb;direction:ltr;text-orientation:mixed;dominant-baseline:auto;baseline-shift:baseline;text-anchor:start;white-space:normal;shape-padding:0;clip-rule:nonzero;display:inline;overflow:visible;visibility:visible;opacity:1;isolation:auto;mix-blend-mode:normal;color-interpolation:sRGB;color-interpolation-filters:linearRGB;solid-color:#000000;solid-opacity:1;vector-effect:none;fill:#000000;fill-opacity:1;fill-rule:evenodd;stroke:none;stroke-width:2.7258575px;stroke-linecap:butt;stroke-linejoin:miter;stroke-miterlimit:4;stroke-dasharray:none;stroke-dashoffset:0;stroke-opacity:1;color-rendering:auto;image-rendering:auto;shape-rendering:auto;text-rendering:auto;enable-background:accumulate"
       d="m 767.37376,768.3177 v 3.98437 h 19.58594 v -3.98437 z"
       id="path6418-1"
       inkscape:connector-curvature="0" />
  </g>
</svg>
